<svg id="Layer_1" data-name="Layer 1" xmlns="http://www.w3.org/2000/svg" viewBox="0 0 600 600"><defs><style>.cls-1{fill:#fff;}</style></defs><title>refresh</title><path class="cls-1" d="M296.21,504.74c-114.26-3.38-203.3-97.34-200-211,3.3-112.27,98.5-202.25,210-198.53,114.79,3.83,202,97.52,199.38,209.1C503,418.41,408.69,508.07,296.21,504.74ZM200.48,279.66c10.41,0,19.72-.2,29,.09,3.85.13,5.33-1.27,6.68-4.79,12.64-33,45.69-51.74,79.39-45a68,68,0,0,1,35.18,19l-28.83,30.24h81V198.17l-29.28,28c-35.4-30.1-74.37-37.24-116.45-18.37C226.65,221.46,208.42,246.22,200.48,279.66ZM229,372.51c34.48,30.59,73.34,39.73,116.3,19.28,29.71-14.14,48-38.4,56.21-71.13-11.17,0-21.47-.11-31.76.16-1.19,0-2.82,2-3.4,3.38-11.18,26.87-31.15,42.39-60.06,45.28-21.18,2.12-39.36-5.44-55.07-20l27-28.52h-79v79.85Z"/></svg>